<svg xmlns="http://www.w3.org/2000/svg" xmlns:xlink="http://www.w3.org/1999/xlink" class="" app-context="doc-2d" x="0px" y="0px" width="200" height="200" jvs-fullPath="_new_1506031421430/Untitled"><title/><desc/><defs><link xmlns="http://www.w3.org/1999/xhtml" no-compile="" rel="stylesheet" type="text/css" href="https://fonts.googleapis.com/css?family=Open+Sans:regular"></link></defs><g id="jvs-guides" transform="matrix(1 0 0 1 0 0)"/><g id="jvs-content" enable-background="new"><g transform="matrix(1,0,0,1,0,0)" name="Layer" jvs-layer-color="#fb0094" class="jvs-layer selected"><path d="M 108.77598571777344 169.74595642089844 C 88.37125396728516 170.9462432861328 82.84709167480469 169.17152404785156 63.27944564819336 160.2771453857422 C 59.584129333496094 158.59744262695312 54.0185661315918 156.98887634277344 50.80831527709961 154.27252197265625 C 48.260215759277344 152.11642456054688 43.60299301147461 140.69317626953125 41.570438385009766 137.64434814453125 C 39.03969192504883 133.8482208251953 34.70232009887695 130.8892364501953 32.56351089477539 126.78984069824219 C 28.743907928466797 119.46894836425781 29.79214859008789 109.79708862304688 29.79214859008789 101.84757995605469 C 29.79214859008789 72.53421783447266 32.30789566040039 49.36457443237305 63.74134063720703 39.26097106933594 C 78.86858367919922 34.39863967895508 95.1810302734375 36.25865936279297 110.85450744628906 36.25865936279297 C 114.59700012207031 36.25865936279297 127.1673812866211 34.76336669921875 130.94688415527344 36.951499938964844 C 141.2029571533203 42.88923263549805 153.14601135253906 51.87864303588867 159.5843048095703 61.89376449584961 C 163.94578552246094 68.67831420898438 163.86505126953125 77.95630645751953 166.05081176757812 85.45034790039062 C 170.6260223388672 101.13680267333984 171.030517578125 128.54127502441406 160.73902893066406 142.26327514648438 C 153.27267456054688 152.21844482421875 140.8679656982422 160.9731903076172 129.09930419921875 164.8960723876953 C 125.6115951538086 166.05865478515625 120.51841735839844 165.14495849609375 117.3210220336914 166.74365234375 C 112.76266479492188 169.0228271484375 109.7513198852539 169.5150146484375 108.77598571777344 169.74595642089844 Z" fill="rgb(0,224,255)" fill-rule="nonzero" stroke="#000000" stroke-width="1.00" stroke-linecap="butt" stroke-linejoin="miter" stroke-miterlimit="10" stroke-dasharray="" stroke-dashoffset="0" font-family="none" font-weight="none" font-size="none" text-anchor="none" style="mix-blend-mode: normal" opacity="1" transform="matrix(1 0 0 1 0 0)" fill-opacity="1"/><path d="M 112.93302917480469 164.66513061523438 C 108.95441436767578 160.32481384277344 71.1545639038086 157.24749755859375 68.82217407226562 152.19400024414062 C 67.3033676147461 148.90325927734375 65.26266479492188 145.84115600585938 63.74134063720703 142.49423217773438 C 61.03814697265625 136.54721069335938 56.48030090332031 130.5634002685547 52.886837005615234 125.17321014404297 C 47.1402702331543 116.5533676147461 39.24326705932617 91.06387329101562 41.801387786865234 80.83141326904297 C 43.92804718017578 72.32476043701172 46.95708084106445 65.39794158935547 54.272518157958984 60.277137756347656 C 56.47199630737305 58.73749923706055 58.264923095703125 56.69175338745117 60.50808334350586 55.19630432128906 C 73.77957916259766 46.34864044189453 90.1560287475586 47.57505798339844 105.542724609375 47.57505798339844 C 117.9814682006836 47.57505798339844 134.18490600585938 48.0982551574707 144.57275390625 55.88914489746094 C 149.69186401367188 59.728485107421875 151.212890625 66.47013854980469 154.27252197265625 71.82447814941406 C 164.10659790039062 89.03410339355469 168.20513916015625 115.80899810791016 157.73672485351562 133.25634765625 C 155.6678924560547 136.70437622070312 153.6103515625 141.5560302734375 153.11778259277344 145.4965362548828 C 153.0464324951172 146.06732177734375 112.73818969726562 164.20323181152344 112.24018859863281 164.20323181152344" fill="rgb(255,255,255)" fill-rule="nonzero" stroke="#000000" stroke-width="1.00" stroke-linecap="butt" stroke-linejoin="miter" stroke-miterlimit="10" stroke-dasharray="" stroke-dashoffset="0" font-family="none" font-weight="none" font-size="none" text-anchor="none" style="mix-blend-mode: normal" opacity="1" transform="matrix(1 0 0 1 0 0)" fill-opacity="1"/><path d="M 87.06697845458984 79.90762329101562 C 85.05663299560547 81.24784851074219 77.26612854003906 86.99116516113281 74.5958480834961 84.98845672607422 C 73.30804443359375 84.0226058959961 73.06405639648438 82.6769790649414 72.05542755126953 81.52425384521484 C 63.3426513671875 71.5667953491211 71.31343841552734 66.60115814208984 82.44803619384766 65.58891296386719 C 85.6216812133789 65.30039978027344 89.27462768554688 65.3759994506836 92.37875366210938 66.05081176757812 C 96.11689758300781 66.86344146728516 102.87972259521484 69.48655700683594 103.92610168457031 73.67205810546875 C 104.29521179199219 75.1485366821289 103.36347961425781 76.63996887207031 102.3094711303711 77.59815216064453 C 95.77967071533203 83.53433227539062 85.56278991699219 79.33328247070312 87.06697845458984 79.90762329101562 Z" fill="none" fill-rule="nonzero" stroke="#000000" stroke-width="1.00" stroke-linecap="butt" stroke-linejoin="miter" stroke-miterlimit="10" stroke-dasharray="" stroke-dashoffset="0" font-family="none" font-weight="none" font-size="none" text-anchor="none" style="mix-blend-mode: normal" opacity="1" transform="matrix(1 0 0 1 0 0)"/><path d="M 115.93533325195312 79.44573211669922 C 112.68983459472656 79.44573211669922 106.92559051513672 80.77015686035156 104.38799285888672 77.59815216064453 C 99.5695571899414 71.57510375976562 104.7903060913086 63.339664459228516 111.77828979492188 63.048500061035156 C 125.60857391357422 62.47224044799805 140.4307861328125 74.19778442382812 121.47806549072266 76.90531158447266 C 119.91996002197266 77.12789916992188 118.38782501220703 78.2909927368164 115.93533325195312 79.44573211669922 Z" fill="none" fill-rule="nonzero" stroke="#000000" stroke-width="1.00" stroke-linecap="butt" stroke-linejoin="miter" stroke-miterlimit="10" stroke-dasharray="" stroke-dashoffset="0" font-family="none" font-weight="none" font-size="none" text-anchor="none" style="mix-blend-mode: normal" opacity="1" transform="matrix(1 0 0 1 0 0)"/><path d="M 103.00231170654297 78.75289154052734 C 103.00231170654297 88.13090515136719 110.2529525756836 111.82666778564453 106.46651458740234 119.39954376220703" fill="none" fill-rule="nonzero" stroke="#000000" stroke-width="1.00" stroke-linecap="butt" stroke-linejoin="miter" stroke-miterlimit="10" stroke-dasharray="" stroke-dashoffset="0" font-family="none" font-weight="none" font-size="none" text-anchor="none" style="mix-blend-mode: normal" opacity="1" transform="matrix(1 0 0 1 0 0)"/><path d="M 60.04619216918945 119.86143493652344 C 70.61592864990234 119.86143493652344 80.69806671142578 121.51891326904297 91.2240219116211 121.93995666503906 C 101.2137680053711 122.33954620361328 110.96473693847656 121.77159118652344 120.78522491455078 121.01616668701172 C 129.58299255371094 120.33940887451172 138.8190155029297 119.72662353515625 147.57505798339844 118.47575378417969 C 148.9318389892578 118.28193664550781 155.63638305664062 115.42981719970703 156.5819854736328 117.3210220336914 C 158.385986328125 120.92903137207031 151.44691467285156 126.92283630371094 149.65357971191406 129.79214477539062 C 147.60369873046875 133.0719451904297 146.49830627441406 136.7304229736328 143.87991333007812 139.72286987304688 C 136.3641357421875 148.3123321533203 109.4607925415039 153.6419219970703 98.61431884765625 152.65589904785156 C 90.70487976074219 151.9368438720703 86.08938598632812 145.89385986328125 81.52425384521484 140.41571044921875 C 79.4129867553711 137.8822021484375 75.96792602539062 136.47601318359375 73.67205810546875 134.18014526367188 C 69.3461685180664 129.85426330566406 65.99388885498047 124.6543960571289 60.04619216918945 119.86143493652344 Z" fill="none" fill-rule="nonzero" stroke="#000000" stroke-width="1.00" stroke-linecap="butt" stroke-linejoin="miter" stroke-miterlimit="10" stroke-dasharray="" stroke-dashoffset="0" font-family="none" font-weight="none" font-size="none" text-anchor="none" style="mix-blend-mode: normal" opacity="1" transform="matrix(1 0 0 1 0 0)"/><path d="M 47.113162994384766 92.37875366210938 C 50.385833740234375 89.57360076904297 55.71906661987305 90.76212310791016 59.815242767333984 90.76212310791016 C 70.16470336914062 90.76212310791016 80.2541732788086 90.69136810302734 90.53118133544922 91.6859130859375 C 92.9265365600586 91.91771697998047 99.06558227539062 91.2134017944336 100.92378997802734 93.07159423828125" fill="none" fill-rule="nonzero" stroke="#000000" stroke-width="1.00" stroke-linecap="butt" stroke-linejoin="miter" stroke-miterlimit="10" stroke-dasharray="" stroke-dashoffset="0" font-family="none" font-weight="none" font-size="none" text-anchor="none" style="mix-blend-mode: normal" opacity="1" transform="matrix(1 0 0 1 0 0)"/><path d="M 56.120094299316406 103.46420288085938 C 66.99200439453125 98.3143539428711 80.59291076660156 100.46189880371094 92.37875366210938 100.46189880371094" fill="none" fill-rule="nonzero" stroke="#000000" stroke-width="1.00" stroke-linecap="butt" stroke-linejoin="miter" stroke-miterlimit="10" stroke-dasharray="" stroke-dashoffset="0" font-family="none" font-weight="none" font-size="none" text-anchor="none" style="mix-blend-mode: normal" opacity="1" transform="matrix(1 0 0 1 0 0)"/><path d="M 67.2055435180664 114.08776092529297 C 72.94502258300781 110.73973846435547 81.71245574951172 108.77598571777344 88.4526596069336 108.77598571777344" fill="none" fill-rule="nonzero" stroke="#000000" stroke-width="1.00" stroke-linecap="butt" stroke-linejoin="miter" stroke-miterlimit="10" stroke-dasharray="" stroke-dashoffset="0" font-family="none" font-weight="none" font-size="none" text-anchor="none" style="mix-blend-mode: normal" opacity="1" transform="matrix(1 0 0 1 0 0)"/><path d="M 119.63048553466797 90.76212310791016 C 128.23182678222656 82.94274139404297 142.05319213867188 84.001708984375 152.8868408203125 81.29330444335938 C 155.20135498046875 80.71466827392578 158.34222412109375 82.14529418945312 160.50808715820312 81.0623550415039" fill="none" fill-rule="nonzero" stroke="#000000" stroke-width="1.00" stroke-linecap="butt" stroke-linejoin="miter" stroke-miterlimit="10" stroke-dasharray="" stroke-dashoffset="0" font-family="none" font-weight="none" font-size="none" text-anchor="none" style="mix-blend-mode: normal" opacity="1" transform="matrix(1 0 0 1 0 0)"/><path d="M 124.4803695678711 98.84526824951172 C 136.91259765625 95.3918685913086 149.86102294921875 94.9191665649414 162.58660888671875 94.9191665649414" fill="none" fill-rule="nonzero" stroke="#000000" stroke-width="1.00" stroke-linecap="butt" stroke-linejoin="miter" stroke-miterlimit="10" stroke-dasharray="" stroke-dashoffset="0" font-family="none" font-weight="none" font-size="none" text-anchor="none" style="mix-blend-mode: normal" opacity="1" transform="matrix(1 0 0 1 0 0)"/><path d="M 123.55658721923828 107.62124633789062 C 127.94950866699219 107.46977233886719 133.4170684814453 106.81504821777344 137.8752899169922 107.39030456542969 C 142.20870971679688 107.94945526123047 146.4732208251953 110.2890625 150.80831909179688 110.85450744628906 C 152.59666442871094 111.08776092529297 159.5823211669922 111.08349609375 161.200927734375 112.70207977294922" fill="none" fill-rule="nonzero" stroke="#000000" stroke-width="1.00" stroke-linecap="butt" stroke-linejoin="miter" stroke-miterlimit="10" stroke-dasharray="" stroke-dashoffset="0" font-family="none" font-weight="none" font-size="none" text-anchor="none" style="mix-blend-mode: normal" opacity="1" transform="matrix(1 0 0 1 0 0)"/><path d="M 88.91455078125 75.0577392578125 C 88.3973159790039 74.90995788574219 83.61104583740234 73.43697357177734 86.37413787841797 72.05542755126953 C 86.78129577636719 71.85185241699219 89.60739135742188 72.87040710449219 89.60739135742188 73.44110870361328 C 89.60739135742188 73.49974822998047 87.61624908447266 75.20130920410156 88.91455078125 75.0577392578125 Z" fill="rgb(0,0,0)" fill-rule="nonzero" stroke="#000000" stroke-width="1.00" stroke-linecap="butt" stroke-linejoin="miter" stroke-miterlimit="10" stroke-dasharray="" stroke-dashoffset="0" font-family="none" font-weight="none" font-size="none" text-anchor="none" style="mix-blend-mode: normal" opacity="1" transform="matrix(1 0 0 1 0 0)" fill-opacity="1"/><path d="M 116.85912322998047 70.43879699707031 C 116.16769409179688 70.57707977294922 111.54483795166016 72.29890441894531 112.00923919677734 69.9769058227539 C 112.63880157470703 66.82905578613281 117.71672058105469 69.58121490478516 116.85912322998047 70.43879699707031 Z" fill="rgb(0,0,0)" fill-rule="nonzero" stroke="#000000" stroke-width="1.00" stroke-linecap="butt" stroke-linejoin="miter" stroke-miterlimit="10" stroke-dasharray="" stroke-dashoffset="0" font-family="none" font-weight="none" font-size="none" text-anchor="none" style="mix-blend-mode: normal" opacity="1" transform="matrix(1 0 0 1 0 0)" fill-opacity="1"/><text controller-class="Text_box" transform="matrix(1 0 0 1 30.485 169.746)" width="162.12471199035645" height="27.25" font-family="Open Sans" font-size="20" font-style="regular" text-align="left" text-anchor="start" fill="rgb(255,255,255)" stroke="#000000" stroke-width="1.00" stroke-linecap="butt" stroke-linejoin="miter" opacity="1" style="" fill-opacity="1"><tspan x="0" y="20" newline=""><![CDATA[Ugly Doraemon ]]></tspan></text></g></g></svg>