<svg xmlns="http://www.w3.org/2000/svg" xmlns:xlink="http://www.w3.org/1999/xlink" class="" app-context="doc-2d" x="0px" y="0px" width="595.2755905512" height="841.8897637795" jvs-fullPath="_new_1506031134506/Untitled"><title/><desc/><defs><link xmlns="http://www.w3.org/1999/xhtml" no-compile="" rel="stylesheet" type="text/css" href="https://fonts.googleapis.com/css?family=Open+Sans:regular"></link></defs><g id="jvs-guides" transform="matrix(1 0 0 1 0 0)"/><g id="jvs-content" enable-background="new"><g transform="matrix(1,0,0,1,0,0)" name="Layer" jvs-layer-color="#fb0094" class="jvs-layer selected"><path d="M 159.84912109375 400.76373291015625 C 151.00245666503906 396.0455017089844 140.91734313964844 394.9147644042969 145.16050720214844 380.7708740234375 C 148.6829376220703 369.0294494628906 145.5685272216797 377.0987243652344 154.54489135742188 369.7544250488281 C 157.76889038085938 367.11663818359375 171.27943420410156 372.4094543457031 170.86558532714844 372.2025451660156 C 166.21876525878906 369.8791198730469 174.9457550048828 346.1510925292969 174.9457550048828 342.00927734375 C 174.9457550048828 338.4584655761719 183.31689453125 319.27362060546875 184.33013916015625 315.89617919921875 C 187.68353271484375 304.7182312011719 195.253173828125 278.947265625 209.2191925048828 282.43878173828125 C 211.62710571289062 283.0407409667969 224.9470672607422 285.76702880859375 225.5398712158203 287.7430114746094 C 231.4132843017578 307.3210754394531 192.27511596679688 353.5809631347656 195.3466033935547 368.9383850097656 C 196.74075317382812 375.9091491699219 206.76507568359375 376.4147033691406 212.07530212402344 379.9548645019531 C 214.04403686523438 381.267333984375 212.89134216308594 387.8386535644531 212.89134216308594 389.74725341796875 C 212.89134216308594 391.6896667480469 213.78817749023438 396.2765197753906 212.4833221435547 397.9075927734375 C 208.1187286376953 403.36334228515625 200.15476989746094 408.5960388183594 193.3065185546875 406.88397216796875 C 190.464599609375 406.17352294921875 182.8031768798828 391.8223876953125 180.24996948242188 390.9713134765625 C 178.96595764160156 390.5433349609375 162.5733642578125 398.7236328125 159.84912109375 400.76373291015625 Z" fill="rgb(168,116,116)" fill-rule="nonzero" stroke="#000000" stroke-width="1.00" stroke-linecap="butt" stroke-linejoin="miter" stroke-miterlimit="10" stroke-dasharray="" stroke-dashoffset="0" font-family="none" font-weight="none" font-size="none" text-anchor="none" style="mix-blend-mode: normal" opacity="1" transform="matrix(1 0 0 1 0 0)" fill-opacity="1"/><path d="M 190.85841369628906 299.57550048828125 C 199.3535919189453 305.23895263671875 212.69186401367188 307.73583984375 223.09176635742188 307.73583984375" fill="none" fill-rule="nonzero" stroke="#000000" stroke-width="1.00" stroke-linecap="butt" stroke-linejoin="miter" stroke-miterlimit="10" stroke-dasharray="" stroke-dashoffset="0" font-family="none" font-weight="none" font-size="none" text-anchor="none" style="mix-blend-mode: normal" opacity="1" transform="matrix(1 0 0 1 0 0)"/><text controller-class="Text_box" transform="matrix(1 0 0 1 139.04 321.608)" width="101.59626292054236" height="27" font-family="Open Sans" font-size="20" font-style="regular" text-align="left" text-anchor="start" fill="rgb(168,116,116)" stroke="#000000" stroke-width="1.00" stroke-linecap="butt" stroke-linejoin="miter" opacity="1" style="" fill-opacity="1"><tspan x="0" y="20" newline=""><![CDATA[Dick SVG]]></tspan></text></g></g></svg>