<?xml version="1.0" standalone="no"?>
<!DOCTYPE svg PUBLIC "-//W3C//DTD SVG 20010904//EN"
 "http://www.w3.org/TR/2001/REC-SVG-20010904/DTD/svg10.dtd">
<svg version="1.0" xmlns="http://www.w3.org/2000/svg"
 width="225.000000pt" height="225.000000pt" viewBox="0 0 225.000000 225.000000"
 preserveAspectRatio="xMidYMid meet">
<metadata>
Created by potrace 1.15, written by Peter Selinger 2001-2017
</metadata>
<g transform="translate(0.000000,225.000000) scale(0.100000,-0.100000)"
fill="#000000" stroke="none">
<path style="fill:#ffa31a;" d="M935 2234 c-609 -105 -1022 -687 -919 -1295 126 -745 939 -1158 1614
-819 684 345 831 1259 290 1800 -256 256 -631 376 -985 314z m435 -101 c311
-74 563 -282 701 -578 94 -202 118 -454 64 -672 -96 -388 -381 -672 -770 -768
-156 -39 -324 -39 -480 0 -389 96 -674 381 -770 768 -54 219 -30 470 66 675
182 391 575 628 1004 605 44 -3 127 -16 185 -30z"/>
<path style="fill:#ffa31a;" d="M538 1790 c-88 -69 -84 -329 7 -460 15 -21 43 -50 64 -63 l37 -25 -4
-88 c-13 -274 200 -581 431 -623 193 -35 406 139 505 411 23 62 27 91 28 187
l1 115 37 25 c45 32 92 100 107 154 44 163 28 315 -39 367 -50 40 -144 16
-257 -64 -75 -54 -128 -119 -153 -188 -12 -36 -21 -47 -32 -42 -28 12 -204 16
-256 7 l-51 -10 -16 47 c-23 65 -84 138 -157 189 -110 78 -203 100 -252 61z"/>
<path style="fill:#ffa31a;" d="M595 486 c-5 -3 -22 -7 -37 -10 -35 -8 -58 -32 -58 -61 0 -28 62 -76
170 -130 119 -60 149 -68 177 -50 29 19 29 47 -1 110 -23 51 -64 93 -116 120
-27 14 -116 28 -135 21z"/>
<path style="fill:#ffa31a;" d="M1564 481 c-71 -18 -131 -70 -163 -141 -27 -59 -26 -86 3 -105 22
-14 28 -14 75 5 145 57 271 138 271 173 0 27 -9 41 -36 55 -29 15 -113 22
-150 13z"/>
</g>
</svg>
