<?xml version="1.0" standalone="no"?>
<!DOCTYPE svg PUBLIC "-//W3C//DTD SVG 20010904//EN"
 "http://www.w3.org/TR/2001/REC-SVG-20010904/DTD/svg10.dtd">
<svg version="1.0" xmlns="http://www.w3.org/2000/svg"
 width="542.000000pt" height="550.000000pt" viewBox="0 0 542.000000 550.000000"
 preserveAspectRatio="xMidYMid meet">
<metadata>
Created by potrace 1.15, written by Peter Selinger 2001-2017
</metadata>
<g transform="translate(0.000000,550.000000) scale(0.100000,-0.100000)"
fill="#000000" stroke="none">
<path style="fill:#ffffff;" d="M4120 4960 c-159 -33 -258 -101 -286 -196 -17 -61 -13 -108 17 -189
16 -43 67 -98 382 -413 l363 -363 40 29 c117 85 184 241 170 392 -8 87 -38
176 -93 279 -177 330 -306 456 -479 466 -38 2 -89 0 -114 -5z m187 -290 c87
-52 83 -198 -6 -245 -98 -50 -211 16 -211 123 0 85 56 142 140 142 27 0 58 -8
77 -20z"/>
<path style="fill:#ffffff;" d="M1000 4379 c-126 -27 -208 -66 -280 -135 -138 -131 -210 -381 -180
-628 25 -211 100 -362 199 -403 49 -21 138 -18 204 7 210 79 511 457 562 705
16 80 7 207 -20 287 -22 62 -83 130 -142 158 -69 33 -215 37 -343 9z m266
-265 c99 -47 100 -206 1 -259 -25 -13 -47 -17 -86 -13 -44 4 -59 11 -89 42
-35 34 -37 40 -37 101 0 57 3 67 30 95 17 18 39 36 50 40 33 14 95 11 131 -6z"/>
<path style="fill:#ffffff;" d="M2940 3884 c-90 -17 -193 -50 -241 -76 -310 -164 -539 -716 -539
-1296 0 -252 42 -441 131 -594 102 -174 281 -374 417 -467 146 -99 333 -164
512 -177 89 -7 90 -7 90 -34 0 -14 -7 -50 -16 -79 -23 -79 -86 -137 -192 -179
-144 -56 -182 -58 -477 -28 -479 49 -629 84 -875 206 -104 51 -106 52 -180 47
-41 -2 -94 -12 -116 -21 l-41 -17 -26 -127 c-14 -70 -23 -129 -21 -131 2 -2
34 10 71 27 124 57 257 80 358 63 104 -17 613 -139 780 -186 136 -38 190 -60
360 -145 242 -121 288 -134 445 -127 254 11 379 80 521 287 71 104 182 212
384 375 190 153 287 222 370 261 66 32 181 63 233 64 12 0 22 3 22 7 0 5 -23
77 -51 162 l-52 154 -25 -53 c-46 -98 -293 -333 -491 -469 -94 -64 -291 -181
-386 -228 -134 -67 -250 -85 -302 -47 -27 20 -96 143 -108 194 -6 24 -2 26 84
53 309 97 631 456 737 822 55 189 43 402 -37 640 -180 540 -574 980 -979 1095
-74 21 -298 36 -360 24z"/>
</g>
</svg>
